<svg width="37" height="37" viewBox="0 0 37 37" fill="none" xmlns="http://www.w3.org/2000/svg">
<rect width="37" height="37" rx="18.5" fill="#9D63EA"/>
<g clip-path="url(#clip0_763_8451)">
<path d="M15.1667 7.83301C13.9208 7.83301 12.8875 8.68717 12.5917 9.84134C12.5583 9.84134 12.5333 9.83301 12.5 9.83301C11.0292 9.83301 9.83333 11.0288 9.83333 12.4997C9.83333 12.6997 9.85833 12.8955 9.90417 13.083C8.6875 13.583 7.83333 14.7747 7.83333 16.1663C7.83333 16.6913 7.96667 17.1788 8.17917 17.6205C7.17917 18.1955 6.5 19.2622 6.5 20.4997C6.5 21.8872 7.35 23.0788 8.55833 23.5788C8.52083 23.7705 8.5 23.9663 8.5 24.1663C8.5 25.8247 9.84167 27.1663 11.5 27.1663C11.6708 27.1663 11.8375 27.1455 12 27.1163C12.4 28.3038 13.5083 29.1663 14.8333 29.1663C16.4917 29.1663 17.8333 27.8247 17.8333 26.1663V10.4997C17.8333 9.02884 16.6375 7.83301 15.1667 7.83301ZM30.5 20.4997C30.5 19.2622 29.8208 18.1955 28.8208 17.6205C29.0375 17.1788 29.1667 16.6913 29.1667 16.1663C29.1667 14.7747 28.3125 13.583 27.0958 13.083C27.1375 12.8955 27.1667 12.6997 27.1667 12.4997C27.1667 11.0288 25.9708 9.83301 24.5 9.83301C24.4667 9.83301 24.4375 9.84134 24.4083 9.84134C24.1125 8.68717 23.0792 7.83301 21.8333 7.83301C20.3625 7.83301 19.1667 9.02467 19.1667 10.4997V26.1663C19.1667 27.8247 20.5083 29.1663 22.1667 29.1663C23.4917 29.1663 24.6 28.3038 25 27.1163C25.1625 27.1455 25.3292 27.1663 25.5 27.1663C27.1583 27.1663 28.5 25.8247 28.5 24.1663C28.5 23.9663 28.4792 23.7705 28.4417 23.5788C29.65 23.0788 30.5 21.8872 30.5 20.4997Z" fill="white"/>
</g>
<defs>
<clipPath id="clip0_763_8451">
<rect width="24" height="24" fill="white" transform="translate(6.5 6.5)"/>
</clipPath>
</defs>
</svg>
