<svg width="37" height="37" viewBox="0 0 37 37" fill="none" xmlns="http://www.w3.org/2000/svg">
<rect width="37" height="37" rx="18.5" fill="#9D63EA"/>
<path d="M29.7493 12.8745C29.7493 12.8745 27.8518 16.8743 27.338 18.921C26.666 21.5985 27.4355 23.622 26.459 26.2185C24.7715 29.2635 24.6575 29.7563 18.4993 29.7495C16.2425 29.7473 9.77975 28.0268 9.77975 28.0268C8.88875 27.798 7.25 27.933 7.25 26.937C7.25 25.941 8.4155 25.215 9.452 25.212L13.5313 25.5705C14.5228 25.5083 15.56 24.9285 15.5915 23.6318C15.575 21.7133 15.3853 20.2403 14.4118 18.6818L10.6303 12.7815C10.4045 12.312 10.3505 11.511 11.0045 11.1533C11.6585 10.7955 12.401 11.3273 12.6545 11.79L16.8778 17.535C17.3293 17.9543 18.131 18.0353 18.0628 17.142L16.1975 8.5913C16.0813 7.9838 16.3895 7.24805 17.093 7.24805C18.0163 7.24805 18.5833 7.60055 18.5653 8.1578L20.6158 16.5945C20.7763 17.0048 21.3448 16.9508 21.4978 16.5713L22.082 8.36705C22.112 8.1053 22.4533 7.6493 23.1088 7.7438C23.7643 7.8383 24.1415 8.54105 24.0725 8.8118L23.8828 16.9185C24.0155 17.637 24.5803 17.742 25.0205 17.3408L27.8908 12.2085C28.0648 11.778 28.748 11.6888 29.1433 11.859C29.5115 12.099 29.7508 12.42 29.7508 12.8723L29.7493 12.8745Z" fill="white"/>
</svg>
