<svg width="37" height="37" viewBox="0 0 37 37" fill="none" xmlns="http://www.w3.org/2000/svg">
<rect width="37" height="37" rx="18.5" fill="#9D63EA"/>
<path fill-rule="evenodd" clip-rule="evenodd" d="M10.1152 28.083C10.1152 27.6861 10.437 27.3643 10.834 27.3643H26.1673C26.5643 27.3643 26.8861 27.6861 26.8861 28.083C26.8861 28.4799 26.5643 28.8018 26.1673 28.8018H10.834C10.437 28.8018 10.1152 28.4799 10.1152 28.083Z" fill="white"/>
<path d="M18.0407 21.307L23.7109 15.6368C22.9392 15.3156 22.0251 14.788 21.1607 13.9236C20.2962 13.059 19.7685 12.1448 19.4474 11.373L13.7771 17.0433C13.3346 17.4858 13.1133 17.707 12.9231 17.951C12.6986 18.2387 12.5062 18.5501 12.3492 18.8796C12.2161 19.1588 12.1171 19.4557 11.9193 20.0494L10.8757 23.1799C10.7783 23.4721 10.8544 23.7942 11.0721 24.0119C11.2899 24.2296 11.612 24.3057 11.9041 24.2083L15.0347 23.1648C15.6283 22.9669 15.9252 22.8679 16.2045 22.7348C16.5339 22.5779 16.8453 22.3854 17.133 22.161C17.377 21.9707 17.5983 21.7495 18.0407 21.307Z" fill="white"/>
<path d="M25.2836 14.0637C26.4609 12.8863 26.4609 10.9774 25.2836 9.80002C24.1062 8.62265 22.1973 8.62265 21.02 9.80002L20.3398 10.4801C20.3491 10.5082 20.3588 10.5367 20.3689 10.5656C20.6181 11.2841 21.0884 12.2259 21.9732 13.1107C22.858 13.9954 23.7998 14.4657 24.5183 14.715C24.547 14.725 24.5754 14.7346 24.6034 14.7439L25.2836 14.0637Z" fill="white"/>
</svg>
