<svg width="37" height="37" viewBox="0 0 37 37" fill="none" xmlns="http://www.w3.org/2000/svg">
<rect width="37" height="37" rx="18.5" fill="#9D63EA"/>
<path d="M18.5 6.63672C11.9308 6.63672 6.60547 11.9621 6.60547 18.5313C7.23199 34.3091 29.7704 34.3047 30.3945 18.5312C30.3945 11.9621 25.0692 6.63672 18.5 6.63672ZM19.2438 10.2663L21.6988 8.63154C23.7997 9.31699 25.6289 10.6514 26.9231 12.4427L26.1312 15.2683L22.2532 16.5112L19.2438 14.2993V10.2663ZM15.3013 8.63154L17.757 10.2666V14.299L14.747 16.5112L10.8688 15.268L10.077 12.4426C11.3711 10.6513 13.2004 9.31686 15.3013 8.63154ZM10.1074 24.6606C8.79582 22.881 8.08977 20.7276 8.093 18.5169L10.4119 16.6827L14.287 17.9249L15.4431 21.5244L13.0445 24.7807L10.1074 24.6606ZM21.7315 28.4189C19.7146 29.1065 17.2852 29.1064 15.2683 28.4189L14.2449 25.6584L16.6469 22.3974H20.3533L22.7549 25.6585L21.7315 28.4189ZM26.8925 24.6607L23.9554 24.7808L21.5571 21.5244L22.7134 17.9249L26.5882 16.683L28.907 18.517C28.9102 20.7277 28.2041 22.8811 26.8925 24.6607Z" fill="white"/>
</svg>
