<svg width="37" height="37" viewBox="0 0 37 37" fill="none" xmlns="http://www.w3.org/2000/svg">
<rect width="37" height="37" rx="18.5" fill="#9D63EA"/>
<path d="M13.2378 21.6153C13.234 21.5766 13.2219 21.541 13.2219 21.5023V21.1709C13.2219 21.0132 13.2476 20.8578 13.2992 20.7099C13.2992 20.7099 14.125 19.6043 14.5155 18.3054C14.0878 17.403 13.6996 16.28 13.6996 15.1668C13.6996 14.9083 13.7186 14.6581 13.7451 14.4116C13.1878 13.8277 12.4348 13.4971 11.603 13.4971C9.88544 13.4971 8.49175 14.8984 8.49175 17.0762C8.49175 18.8187 9.90975 20.7098 9.90975 20.7098C9.95979 20.8577 9.9856 21.0132 9.9856 21.1709V21.5022C9.9856 21.9155 9.74446 22.2916 9.36835 22.4638L7.117 23.3836C6.59375 23.6247 6.22142 24.1054 6.11757 24.6711L6.07889 25.1663C6.05919 25.4241 6.14713 25.6781 6.32305 25.8669C6.49819 26.0573 6.74468 26.1642 7.00324 26.1642H10.6832L10.8341 24.2253L10.8439 24.1729C11.0282 23.1561 11.7 22.2916 12.6387 21.8594L13.2378 21.6153Z" fill="white"/>
<path d="M30.8816 24.6711C30.7785 24.1054 30.4062 23.6246 29.883 23.3836L27.6301 22.4638C27.254 22.2916 27.0144 21.9155 27.0144 21.5022V21.1709C27.0144 21.0132 27.0394 20.8577 27.0909 20.7098C27.0909 20.7098 28.5082 18.8187 28.5082 17.0762C28.5082 14.8984 27.1152 13.4971 25.3947 13.4971C24.5644 13.4971 23.8114 13.8277 23.2525 14.4131C23.2798 14.6588 23.2988 14.9082 23.2988 15.1668C23.2988 16.2792 22.9113 17.4022 22.4844 18.3045C22.8741 19.6035 23.7014 20.7098 23.7014 20.7098C23.7514 20.8577 23.778 21.0132 23.778 21.1709V21.5022C23.778 21.5409 23.7651 21.5765 23.7613 21.6152L24.3194 21.8427C25.2976 22.2901 25.9694 23.1545 26.156 24.1714L26.1651 24.2245L26.3152 26.1642H29.9967C30.2552 26.1642 30.5017 26.0573 30.6761 25.8669C30.852 25.6781 30.94 25.4241 30.9202 25.1663L30.8816 24.6711Z" fill="white"/>
<path d="M23.9282 22.8001L21.203 21.6862C20.748 21.4769 20.4576 21.0219 20.4576 20.523V20.1211C20.4576 19.9315 20.4879 19.7427 20.5509 19.563C20.5509 19.563 22.2646 17.276 22.2646 15.1665C22.2646 12.5307 20.579 10.8359 18.499 10.8359C16.4198 10.8359 14.7333 12.5307 14.7333 15.1665C14.7333 17.276 16.4486 19.563 16.4486 19.563C16.51 19.7427 16.5419 19.9315 16.5419 20.1211V20.523C16.5419 21.0219 16.2492 21.4769 15.7949 21.6862L13.0697 22.8001C12.4365 23.0905 11.9853 23.6728 11.861 24.3583L11.7207 26.1638H18.499H25.2773L25.1385 24.3583C25.0126 23.6729 24.5614 23.0905 23.9282 22.8001Z" fill="white"/>
</svg>
