<svg width="37" height="37" viewBox="0 0 37 37" fill="none" xmlns="http://www.w3.org/2000/svg">
<rect width="37" height="37" rx="18.5" fill="#9D63EA"/>
<g clip-path="url(#clip0_763_8535)">
<path d="M8.00037 28.2972L8.70312 29L10.599 27.1041L9.89627 26.4014L8.00037 28.2972Z" fill="white"/>
<path d="M8.00781 28.2904L9.90372 26.4082L10.5925 27.111L8.70356 28.9861L8.00781 28.2904Z" fill="white"/>
<path d="M18.8152 14.0537L9.7832 24.9176L12.0826 27.217L22.9465 18.1849L18.8152 14.0537ZM12.0826 27.217L22.9465 18.1849L12.0826 27.217Z" fill="white"/>
<path d="M9.79102 24.9103L18.8236 14.0596L22.9404 18.1914L12.0841 27.2033L9.79102 24.9103Z" fill="white"/>
<path d="M19.2054 12.9429L24.0562 17.7937C25.2671 17.8076 26.4791 17.3663 27.4288 16.486L20.513 9.57031C19.6328 10.5199 19.1915 11.732 19.2054 12.9429Z" fill="white"/>
<path d="M24.057 17.784L19.2131 12.936C19.2017 11.6957 19.6651 10.5005 20.521 9.57715L27.4226 16.493C26.5149 17.3207 25.3394 17.7843 24.1128 17.7843L24.057 17.784Z" fill="white"/>
<path d="M27.5687 9.4316C25.9385 7.80131 23.4464 7.56547 21.5605 8.71366L28.2866 15.4397C29.4348 13.5539 29.199 11.0618 27.5687 9.4316Z" fill="white"/>
<path d="M21.5664 8.7067C22.3297 8.25619 23.21 8.00977 24.1101 8.00977C25.4139 8.00977 26.6393 8.51717 27.5606 9.43842C29.1559 11.0338 29.4524 13.4933 28.2835 15.4238L21.5664 8.7067Z" fill="white"/>
</g>
<defs>
<clipPath id="clip0_763_8535">
<rect width="21" height="21" fill="white" transform="translate(8 8)"/>
</clipPath>
</defs>
</svg>
