<svg width="33" height="33" viewBox="0 0 33 33" fill="none" xmlns="http://www.w3.org/2000/svg">
<rect width="33" height="33" rx="16.5" fill="#9D63EA"/>
<path d="M16.5 11.25C17.4712 11.25 18.25 10.4625 18.25 9.5C18.25 9.1675 18.1625 8.86125 17.9963 8.59875L16.5 6L15.0037 8.59875C14.8375 8.86125 14.75 9.1675 14.75 9.5C14.75 10.4625 15.5375 11.25 16.5 11.25ZM20.525 19.9913L19.5887 19.055L18.6438 19.9913C17.5062 21.1287 15.5113 21.1375 14.365 19.9913L13.4288 19.055L12.475 19.9913C11.9062 20.56 11.145 20.875 10.34 20.875C9.70125 20.875 9.115 20.6737 8.625 20.3412V24.375C8.625 24.8563 9.01875 25.25 9.5 25.25H23.5C23.9812 25.25 24.375 24.8563 24.375 24.375V20.3412C23.885 20.6737 23.2988 20.875 22.66 20.875C21.855 20.875 21.0938 20.56 20.525 19.9913ZM21.75 13.875H17.375V12.125H15.625V13.875H11.25C9.7975 13.875 8.625 15.0475 8.625 16.5V17.8475C8.625 18.7925 9.395 19.5625 10.34 19.5625C10.795 19.5625 11.2325 19.3875 11.5475 19.0638L13.42 17.2L15.2837 19.0638C15.9312 19.7113 17.06 19.7113 17.7075 19.0638L19.58 17.2L21.4437 19.0638C21.7675 19.3875 22.1963 19.5625 22.6513 19.5625C23.5963 19.5625 24.3663 18.7925 24.3663 17.8475V16.5C24.375 15.0475 23.2025 13.875 21.75 13.875Z" fill="white"/>
</svg>
