<svg width="33" height="34" viewBox="0 0 33 34" fill="none" xmlns="http://www.w3.org/2000/svg">
<rect y="0.5" width="33" height="33" rx="16.5" fill="#9D63EA"/>
<path d="M12.6044 8.29199C12.6044 7.9123 12.2966 7.60449 11.9169 7.60449C11.5372 7.60449 11.2294 7.9123 11.2294 8.29199V9.73965C9.91004 9.84529 9.04388 10.1046 8.40753 10.7409C7.77118 11.3773 7.5119 12.2434 7.40625 13.5628H25.5942C25.4886 12.2434 25.2293 11.3773 24.593 10.7409C23.9566 10.1046 23.0905 9.84529 21.7711 9.73965V8.29199C21.7711 7.9123 21.4633 7.60449 21.0836 7.60449C20.7039 7.60449 20.3961 7.9123 20.3961 8.29199V9.67882C19.7862 9.66699 19.1027 9.66699 18.3336 9.66699H14.6669C13.8978 9.66699 13.2143 9.66699 12.6044 9.67882V8.29199Z" fill="white"/>
<path fill-rule="evenodd" clip-rule="evenodd" d="M7.33398 17C7.33398 16.2309 7.33398 15.5474 7.34581 14.9375H25.6555C25.6673 15.5474 25.6673 16.2309 25.6673 17V18.8333C25.6673 22.2903 25.6673 24.0188 24.5933 25.0927C23.5195 26.1667 21.7909 26.1667 18.334 26.1667H14.6673C11.2103 26.1667 9.48187 26.1667 8.40792 25.0927C7.33398 24.0188 7.33398 22.2903 7.33398 18.8333V17ZM21.084 18.8333C21.5903 18.8333 22.0007 18.4229 22.0007 17.9167C22.0007 17.4104 21.5903 17 21.084 17C20.5777 17 20.1673 17.4104 20.1673 17.9167C20.1673 18.4229 20.5777 18.8333 21.084 18.8333ZM21.084 22.5C21.5903 22.5 22.0007 22.0896 22.0007 21.5833C22.0007 21.0771 21.5903 20.6667 21.084 20.6667C20.5777 20.6667 20.1673 21.0771 20.1673 21.5833C20.1673 22.0896 20.5777 22.5 21.084 22.5ZM17.4173 17.9167C17.4173 18.4229 17.0069 18.8333 16.5007 18.8333C15.9944 18.8333 15.584 18.4229 15.584 17.9167C15.584 17.4104 15.9944 17 16.5007 17C17.0069 17 17.4173 17.4104 17.4173 17.9167ZM17.4173 21.5833C17.4173 22.0896 17.0069 22.5 16.5007 22.5C15.9944 22.5 15.584 22.0896 15.584 21.5833C15.584 21.0771 15.9944 20.6667 16.5007 20.6667C17.0069 20.6667 17.4173 21.0771 17.4173 21.5833ZM11.9173 18.8333C12.4236 18.8333 12.834 18.4229 12.834 17.9167C12.834 17.4104 12.4236 17 11.9173 17C11.4111 17 11.0007 17.4104 11.0007 17.9167C11.0007 18.4229 11.4111 18.8333 11.9173 18.8333ZM11.9173 22.5C12.4236 22.5 12.834 22.0896 12.834 21.5833C12.834 21.0771 12.4236 20.6667 11.9173 20.6667C11.4111 20.6667 11.0007 21.0771 11.0007 21.5833C11.0007 22.0896 11.4111 22.5 11.9173 22.5Z" fill="white"/>
</svg>
