<svg width="33" height="33" viewBox="0 0 33 33" fill="none" xmlns="http://www.w3.org/2000/svg">
<rect width="33" height="33" rx="16.5" fill="#9D63EA"/>
<path d="M16.5 16.1003C17.5332 16.1003 18.5241 15.6736 19.2547 14.9141C19.9853 14.1545 20.3957 13.1243 20.3957 12.0502C20.3957 10.976 19.9853 9.94582 19.2547 9.18627C18.5241 8.42671 17.5332 8 16.5 8C15.4668 8 14.4759 8.42671 13.7453 9.18627C13.0147 9.94582 12.6043 10.976 12.6043 12.0502C12.6043 13.1243 13.0147 14.1545 13.7453 14.9141C14.4759 15.6736 15.4668 16.1003 16.5 16.1003ZM16.5 17.8798C11.3204 17.8798 8 20.8514 8 22.2983V25H25V22.2983C25 20.5486 21.8565 17.8798 16.5 17.8798Z" fill="white"/>
</svg>
