<?xml version="1.0" encoding="UTF-8"?>
<svg xmlns="http://www.w3.org/2000/svg" id="livetype" version="1.1" viewBox="0 0 119.7 40">
  <defs>
    <style>
      .st0 {
        fill: #fff;
      }
    </style>
  </defs>
  <g>
    <path class="st0" d="M110.1,0H9.5c-.4,0-.7,0-1.1,0-.3,0-.6,0-.9,0-.7,0-1.3,0-2,.2-.7.1-1.3.3-1.9.6-.6.3-1.1.7-1.6,1.2-.5.5-.9,1-1.2,1.6-.3.6-.5,1.2-.6,1.9-.1.7-.2,1.3-.2,2,0,.3,0,.6,0,.9v23.1c0,.3,0,.6,0,.9,0,.7,0,1.3.2,2,.1.7.3,1.3.6,1.9.3.6.7,1.1,1.2,1.6.5.5,1,.9,1.6,1.2.6.3,1.2.5,1.9.6.7.1,1.3.2,2,.2.3,0,.6,0,.9,0,.4,0,.7,0,1.1,0h100.6c.4,0,.7,0,1.1,0,.3,0,.6,0,.9,0,.7,0,1.3,0,2-.2.7-.1,1.3-.3,1.9-.6.6-.3,1.1-.7,1.6-1.2.5-.5.9-1,1.2-1.6.3-.6.5-1.2.6-1.9.1-.7.2-1.3.2-2,0-.3,0-.6,0-.9,0-.4,0-.7,0-1.1V9.5c0-.4,0-.7,0-1.1,0-.3,0-.6,0-.9,0-.7,0-1.3-.2-2-.1-.7-.3-1.3-.6-1.9-.3-.6-.7-1.1-1.2-1.6-.5-.5-1-.9-1.6-1.2-.6-.3-1.2-.5-1.9-.6-.7-.1-1.3-.2-2-.2-.3,0-.6,0-.9,0-.4,0-.7,0-1.1,0h0Z"></path>
    <path d="M8.4,39.1c-.3,0-.6,0-.9,0-.6,0-1.2,0-1.9-.2-.6-.1-1.2-.3-1.7-.5-.5-.3-1-.6-1.4-1-.4-.4-.8-.9-1-1.4-.3-.5-.4-1-.5-1.7-.1-.7-.2-1.4-.2-1.9,0-.2,0-.9,0-.9V8.4s0-.7,0-.9c0-.5,0-1.2.2-1.9.1-.6.3-1.2.5-1.7.3-.5.6-1,1-1.4.4-.4.9-.8,1.4-1,.5-.3,1.1-.4,1.7-.5.7-.1,1.4-.2,1.9-.2h.9s102.8,0,102.8,0h.9c.5,0,1.2,0,1.9.2.6.1,1.1.3,1.7.5.5.3,1,.6,1.4,1,.4.4.8.9,1,1.4.3.5.4,1.1.5,1.6.1.6.2,1.3.2,1.9,0,.3,0,.6,0,.9,0,.4,0,.7,0,1.1v20.9c0,.4,0,.7,0,1.1,0,.3,0,.6,0,.9,0,.6,0,1.2-.2,1.9-.1.6-.3,1.2-.5,1.7-.3.5-.6,1-1,1.4-.4.4-.9.8-1.4,1-.5.3-1,.4-1.7.5-.6.1-1.3.1-1.9.2-.3,0-.6,0-.9,0h-1.1s-101.7,0-101.7,0Z"></path>
  </g>
  <g>
    <g>
      <path class="st0" d="M25,19.9c0-2.9,2.3-4.3,2.5-4.3-1.3-2-3.4-2.2-4.2-2.2-1.7-.2-3.4,1-4.3,1s-2.3-1-3.8-1c-1.9,0-3.7,1.1-4.7,2.8-2,3.5-.5,8.6,1.4,11.4,1,1.4,2.1,2.9,3.6,2.9,1.4,0,2-.9,3.7-.9s2.2.9,3.7.9c1.5,0,2.5-1.4,3.5-2.8,1.1-1.6,1.6-3.1,1.6-3.2,0,0-3-1.1-3-4.6Z"></path>
      <path class="st0" d="M22.2,11.5c.8-1,1.3-2.3,1.2-3.6-1.1,0-2.5.8-3.3,1.7-.7.8-1.4,2.2-1.2,3.5,1.3,0,2.6-.6,3.4-1.6Z"></path>
    </g>
    <g>
      <path class="st0" d="M42.3,27.1h-4.7l-1.1,3.4h-2l4.5-12.4h2.1l4.5,12.4h-2l-1.1-3.4ZM38.1,25.6h3.8l-1.8-5.4h0l-1.9,5.4Z"></path>
      <path class="st0" d="M55.2,26c0,2.8-1.5,4.6-3.8,4.6s-2.3-.6-2.8-1.6h0v4.5h-1.9v-12h1.8v1.5h0c.5-1,1.6-1.6,2.9-1.6,2.3,0,3.8,1.8,3.8,4.6ZM53.2,26c0-1.8-.9-3-2.4-3s-2.4,1.2-2.4,3,1,3,2.4,3,2.4-1.2,2.4-3Z"></path>
      <path class="st0" d="M65.1,26c0,2.8-1.5,4.6-3.8,4.6s-2.3-.6-2.8-1.6h0v4.5h-1.9v-12h1.8v1.5h0c.5-1,1.6-1.6,2.9-1.6,2.3,0,3.8,1.8,3.8,4.6ZM63.2,26c0-1.8-.9-3-2.4-3s-2.4,1.2-2.4,3,1,3,2.4,3,2.4-1.2,2.4-3Z"></path>
      <path class="st0" d="M71.7,27c.1,1.2,1.3,2,3,2s2.7-.8,2.7-1.9-.7-1.5-2.3-1.9l-1.6-.4c-2.3-.6-3.3-1.6-3.3-3.3s1.9-3.6,4.5-3.6,4.4,1.5,4.5,3.6h-1.9c-.1-1.2-1.1-2-2.6-2s-2.5.8-2.5,1.9.7,1.4,2.3,1.8l1.4.3c2.5.6,3.6,1.6,3.6,3.4s-1.8,3.8-4.8,3.8-4.6-1.4-4.7-3.7h1.9Z"></path>
      <path class="st0" d="M83.3,19.3v2.1h1.7v1.5h-1.7v5c0,.8.3,1.1,1.1,1.1s.5,0,.6,0v1.5c-.2,0-.6,0-1,0-1.8,0-2.5-.7-2.5-2.4v-5.2h-1.3v-1.5h1.3v-2.1h1.9Z"></path>
      <path class="st0" d="M86.1,26c0-2.8,1.7-4.6,4.3-4.6s4.3,1.8,4.3,4.6-1.7,4.6-4.3,4.6-4.3-1.8-4.3-4.6ZM92.8,26c0-2-.9-3.1-2.4-3.1s-2.4,1.2-2.4,3.1.9,3.1,2.4,3.1,2.4-1.1,2.4-3.1Z"></path>
      <path class="st0" d="M96.2,21.4h1.8v1.5h0c.3-1,1.1-1.6,2.2-1.6s.5,0,.6,0v1.7c-.1,0-.5-.1-.8-.1-1.2,0-1.9.8-1.9,2.1v5.4h-1.9v-9.1Z"></path>
      <path class="st0" d="M109.4,27.8c-.2,1.6-1.9,2.8-3.9,2.8s-4.3-1.8-4.3-4.6,1.6-4.7,4.2-4.7,4.1,1.7,4.1,4.5v.6h-6.4c0,1.7,1,2.7,2.4,2.7s1.8-.5,2.1-1.3h1.8ZM103.1,25.1h4.5c0-1.4-.9-2.3-2.2-2.3s-2.2.9-2.3,2.3Z"></path>
    </g>
    <g>
      <path class="st0" d="M37.8,8.7c1.8,0,2.8,1.1,2.8,3s-1,3-2.8,3h-2.2v-6h2.2ZM36.6,13.9h1.1c1.2,0,2-.8,2-2.1s-.7-2.1-2-2.1h-1.1v4.3Z"></path>
      <path class="st0" d="M41.7,12.4c0-1.5.8-2.3,2.1-2.3s2.1.9,2.1,2.3-.8,2.3-2.1,2.3-2.1-.9-2.1-2.3ZM45,12.4c0-1-.4-1.5-1.2-1.5s-1.2.6-1.2,1.5.4,1.6,1.2,1.6,1.2-.6,1.2-1.6Z"></path>
      <path class="st0" d="M51.6,14.7h-.9l-.9-3.3h0l-.9,3.3h-.9l-1.2-4.5h.9l.8,3.4h0l.9-3.4h.9l.9,3.4h0l.8-3.4h.9l-1.2,4.5Z"></path>
      <path class="st0" d="M53.9,10.2h.9v.7h0c.2-.5.7-.8,1.3-.8,1,0,1.6.6,1.6,1.7v2.9h-.9v-2.7c0-.7-.3-1.1-1-1.1s-1.1.4-1.1,1.1v2.6h-.9v-4.5Z"></path>
      <path class="st0" d="M59.1,8.4h.9v6.3h-.9v-6.3Z"></path>
      <path class="st0" d="M61.2,12.4c0-1.5.8-2.3,2.1-2.3s2.1.9,2.1,2.3-.8,2.3-2.1,2.3-2.1-.9-2.1-2.3ZM64.6,12.4c0-1-.4-1.5-1.2-1.5s-1.2.6-1.2,1.5.4,1.6,1.2,1.6,1.2-.6,1.2-1.6Z"></path>
      <path class="st0" d="M66.4,13.4c0-.8.6-1.3,1.7-1.3h1.2v-.5c0-.5-.3-.7-.9-.7s-.8.2-.9.5h-.9c0-.8.8-1.3,1.8-1.3s1.8.6,1.8,1.5v3.1h-.9v-.6h0c-.3.5-.8.7-1.4.7-.9,0-1.5-.5-1.5-1.3ZM69.3,13v-.4h-1.1c-.6.1-.9.3-.9.7s.4.6.8.6,1.2-.4,1.2-1Z"></path>
      <path class="st0" d="M71.3,12.4c0-1.4.7-2.3,1.9-2.3s1.1.3,1.4.8h0v-2.5h.9v6.3h-.9v-.7h0c-.3.5-.8.8-1.4.8-1.1,0-1.9-.9-1.9-2.3ZM72.3,12.4c0,1,.5,1.5,1.2,1.5s1.2-.6,1.2-1.5-.5-1.5-1.2-1.5-1.2.6-1.2,1.5Z"></path>
      <path class="st0" d="M79.2,12.4c0-1.5.8-2.3,2.1-2.3s2.1.9,2.1,2.3-.8,2.3-2.1,2.3-2.1-.9-2.1-2.3ZM82.6,12.4c0-1-.4-1.5-1.2-1.5s-1.2.6-1.2,1.5.4,1.6,1.2,1.6,1.2-.6,1.2-1.6Z"></path>
      <path class="st0" d="M84.7,10.2h.9v.7h0c.2-.5.7-.8,1.3-.8,1,0,1.6.6,1.6,1.7v2.9h-.9v-2.7c0-.7-.3-1.1-1-1.1s-1.1.4-1.1,1.1v2.6h-.9v-4.5Z"></path>
      <path class="st0" d="M93.5,9.1v1.1h1v.7h-1v2.3c0,.5.2.7.6.7s.2,0,.3,0v.7c-.1,0-.3,0-.5,0-1,0-1.4-.3-1.4-1.2v-2.5h-.7v-.7h.7v-1.1h.9Z"></path>
      <path class="st0" d="M95.7,8.4h.9v2.5h0c.2-.5.7-.8,1.4-.8s1.6.6,1.6,1.7v2.9h-.9v-2.7c0-.7-.3-1.1-1-1.1s-1.1.5-1.1,1.1v2.6h-.9v-6.3Z"></path>
      <path class="st0" d="M104.8,13.5c-.2.8-.9,1.3-2,1.3s-2.1-.9-2.1-2.3.8-2.4,2.1-2.4,2,.9,2,2.3v.3h-3.2c0,.8.5,1.3,1.2,1.3s.9-.2,1.1-.5h.9ZM101.6,12h2.3c0-.7-.5-1.2-1.1-1.2s-1.1.5-1.2,1.2Z"></path>
    </g>
  </g>
</svg>
