<svg width="92" height="15" viewBox="0 0 92 15" fill="none" xmlns="http://www.w3.org/2000/svg">
<path d="M0 14.6713V0.328685H4.03103V7.23535L10.8077 0.328685H15.4246L8.94084 6.62066C9.46549 10.3685 10.5978 11.9266 11.3542 11.9266C12.1106 11.9266 12.4866 10.4112 12.1936 8.07627H15.6782C16.0979 12.0931 14.5677 15 11.481 15C9.08949 15 7.24012 13.5871 6.15147 9.3654L4.03103 11.4143V14.6713H0ZM17.5232 14.6713H21.5542V0.328685H17.5232V14.6713ZM32.5062 11.5979C35.2562 11.5979 36.9132 9.98008 36.9132 7.5C36.9132 5.01992 35.2562 3.40211 32.5062 3.40211H28.5189V11.5979H32.5062ZM40.9443 7.5C40.9443 11.4954 37.6084 14.6713 33.3894 14.6713H24.4922V0.328685H33.3894C37.6084 0.328685 40.9443 3.50455 40.9443 7.5ZM54.3533 5.71571L56.4956 3.09476C54.1872 1.3745 50.8732 0 47.5767 0C44.2801 0 42.2471 1.55805 42.2471 3.44052C42.2471 5.32299 43.7992 7.00484 47.3056 8.29824L49.8457 9.22026C51.3585 9.77519 52.1979 10.3899 52.1979 11.0643C52.1979 11.5979 51.7345 11.9266 51.0218 11.9266C48.8183 11.9266 46.488 10.8423 44.6212 8.83182L42.2078 11.2906C44.3282 13.4633 47.6641 15 51.1049 15C54.5457 15 56.5 13.6084 56.5 11.393C56.5 9.34405 55.2409 7.60245 50.8338 6.02305L47.9789 4.99858C46.9296 4.63147 46.5536 4.22168 46.5536 3.79055C46.5536 3.35942 47.0564 3.07342 47.8346 3.07342C50.0381 3.07342 52.4078 4.15766 54.3621 5.71571H54.3533Z" fill="#9D63EA"/>
<path d="M74.1337 0V7.33198C74.1337 11.9843 70.9557 15 66.0668 15C61.178 15 58 11.9843 58 7.33198V0H62.0138V7.33198C62.0138 10.0771 63.6028 11.8577 66.0668 11.8577C68.5309 11.8577 70.1198 10.0771 70.1198 7.33198V0H74.1337Z" fill="#ACDA77"/>
<path fill-rule="evenodd" clip-rule="evenodd" d="M92 5.44661C92 8.63253 89.179 10.6401 84.7081 10.6401C83.5588 10.6401 82.2832 10.4743 80.864 10.1382V14.664H76.8502V0H84.2466C89.0092 0 92 2.09485 92 5.44661ZM87.9862 5.44661C87.9862 6.89118 86.6236 7.71167 84.1596 7.71167C83.0756 7.71167 81.9045 7.54146 80.8597 7.27088V3.14228H83.18C86.3972 3.14228 87.9862 3.89729 87.9862 5.44661Z" fill="#ACDA77"/>
</svg>
