<svg width="1280" height="579" viewBox="0 0 1280 579" fill="none" xmlns="http://www.w3.org/2000/svg">
<g clip-path="url(#clip0_763_6941)">
<g clip-path="url(#clip1_763_6941)">
<path d="M-2249 305.664L-2115.67 275.942C-1982.34 247.331 -1715.67 186.221 -1449.01 157.61C-1182.34 127.888 -915.68 127.888 -649.016 157.61C-382.352 186.221 -115.688 247.331 150.976 275.942C417.64 305.664 684.304 305.664 950.968 290.942C1217.63 275.109 1484.3 247.331 1617.63 231.498L1750.96 216.776V927.88H1617.63C1484.3 927.88 1217.63 927.88 950.968 927.88C684.304 927.88 417.64 927.88 150.976 927.88C-115.688 927.88 -382.352 927.88 -649.016 927.88C-915.68 927.88 -1182.34 927.88 -1449.01 927.88C-1715.67 927.88 -1982.34 927.88 -2115.67 927.88H-2249V305.664Z" fill="#F5F5F6"/>
</g>
</g>
<defs>
<clipPath id="clip0_763_6941">
<rect width="4000" height="888.88" fill="white" transform="translate(-2249 -113)"/>
</clipPath>
<clipPath id="clip1_763_6941">
<rect width="3999.96" height="888.88" fill="white" transform="translate(-2249 39)"/>
</clipPath>
</defs>
</svg>
